<?xml version="1.0" standalone="no"?>
<!DOCTYPE svg PUBLIC "-//W3C//DTD SVG 20010904//EN"
 "http://www.w3.org/TR/2001/REC-SVG-20010904/DTD/svg10.dtd">
<svg version="1.0" xmlns="http://www.w3.org/2000/svg"
 width="1080.000000pt" height="1080.000000pt" viewBox="0 0 1080.000000 1080.000000"
 preserveAspectRatio="xMidYMid meet">
<metadata>
Created by potrace 1.14, written by Peter Selinger 2001-2017
</metadata>
<g transform="translate(0.000000,1080.000000) scale(0.100000,-0.100000)"
fill="#000000" stroke="none">
<path d="M1564 6865 c-84 -18 -177 -67 -239 -126 -85 -80 -145 -215 -145 -326
l0 -53 159 0 158 0 6 52 c13 107 89 171 203 171 80 0 136 -30 172 -93 36 -61
38 -163 4 -232 -13 -25 -176 -225 -362 -445 l-340 -398 0 -147 0 -148 525 0
525 0 0 145 0 145 -326 2 -327 3 266 312 c285 335 315 373 354 460 32 68 43
214 23 306 -38 187 -185 332 -378 373 -82 17 -197 17 -278 -1z"/>
<path d="M4390 5995 l0 -875 170 0 170 0 2 522 3 522 332 -519 331 -520 156
-3 156 -3 0 876 0 875 -170 0 -170 0 -2 -527 -3 -528 -336 525 -335 525 -152
3 -152 3 0 -876z"/>
<path d="M6110 5995 l0 -875 570 0 570 0 0 155 0 155 -400 0 -400 0 0 205 0
205 340 0 340 0 0 155 0 155 -340 0 -340 0 0 200 0 200 400 0 400 0 0 160 0
160 -570 0 -570 0 0 -875z"/>
<path d="M7570 5995 l0 -875 175 0 175 0 -2 873 -3 872 -172 3 -173 2 0 -875z"/>
<path d="M8310 5995 l0 -875 170 0 170 0 2 524 3 523 334 -523 334 -524 154 0
153 0 0 875 0 875 -170 0 -170 0 -2 -526 -3 -526 -255 399 c-140 219 -291 455
-337 526 l-82 127 -151 0 -150 0 0 -875z"/>
<path d="M2396 6388 c4 -7 99 -149 211 -316 l203 -303 -215 -319 c-118 -175
-215 -321 -215 -324 0 -3 87 -6 193 -6 l192 0 57 98 c32 53 82 137 111 185
l54 88 113 -186 112 -185 195 0 c152 0 193 3 187 13 -4 6 -102 153 -217 325
l-210 313 201 299 c111 164 205 306 208 314 5 14 -16 16 -185 16 l-190 0 -107
-180 -107 -181 -105 181 -105 180 -194 0 c-153 0 -193 -3 -187 -12z"/>
</g>
</svg>
